<svg width="46" height="46" viewBox="0 0 46 46" fill="none" xmlns="http://www.w3.org/2000/svg">
<g clip-path="url(#clip0_116_255)">
<path d="M14.375 43.125C15.9628 43.125 17.25 41.8378 17.25 40.25C17.25 38.6622 15.9628 37.375 14.375 37.375C12.7872 37.375 11.5 38.6622 11.5 40.25C11.5 41.8378 12.7872 43.125 14.375 43.125Z" fill="black"/>
<path d="M34.5 43.125C36.0878 43.125 37.375 41.8378 37.375 40.25C37.375 38.6622 36.0878 37.375 34.5 37.375C32.9122 37.375 31.625 38.6622 31.625 40.25C31.625 41.8378 32.9122 43.125 34.5 43.125Z" fill="black"/>
<path d="M40.25 10.0625H8.36625L7.1875 4.02505C7.1203 3.69546 6.93964 3.39988 6.67698 3.18976C6.41433 2.97963 6.0863 2.86827 5.75 2.87505H0V5.75005H4.57125L10.0625 33.35C10.1297 33.6796 10.3104 33.9752 10.573 34.1853C10.8357 34.3955 11.1637 34.5068 11.5 34.5H37.375V31.625H12.6787L11.5 25.875H37.375C37.7073 25.8832 38.0321 25.7759 38.2942 25.5714C38.5563 25.367 38.7395 25.0781 38.8125 24.7538L41.6875 11.8163C41.7357 11.603 41.7346 11.3815 41.6842 11.1688C41.6339 10.956 41.5357 10.7575 41.3971 10.5883C41.2585 10.4192 41.0831 10.284 40.8843 10.1929C40.6855 10.1017 40.4686 10.0572 40.25 10.0625ZM36.225 23H10.9537L8.94125 12.9375H38.4531L36.225 23Z" fill="black"/>
</g>
<defs>
<clipPath id="clip0_116_255">
<rect width="46" height="46" fill="white"/>
</clipPath>
</defs>
</svg>
