<svg width="46" height="46" viewBox="0 0 46 46" fill="none" xmlns="http://www.w3.org/2000/svg">
<g clip-path="url(#clip0_116_246)">
<path d="M23 27.3125C21.3396 27.3139 19.7048 26.9039 18.2416 26.119C16.7784 25.3342 15.5324 24.1991 14.6151 22.815L17.01 21.2231C17.6657 22.2115 18.5559 23.0223 19.601 23.5832C20.6462 24.144 21.8139 24.4375 23 24.4375C24.1862 24.4375 25.3539 24.144 26.3991 23.5832C27.4442 23.0223 28.3344 22.2115 28.9901 21.2231L31.385 22.815C30.4677 24.1991 29.2217 25.3342 27.7585 26.119C26.2953 26.9039 24.6605 27.3139 23 27.3125Z" fill="black"/>
<path d="M28.75 11.5C28.1814 11.5 27.6255 11.6686 27.1527 11.9845C26.6799 12.3005 26.3114 12.7495 26.0938 13.2748C25.8762 13.8001 25.8193 14.3782 25.9302 14.9359C26.0412 15.4936 26.315 16.0059 26.7171 16.4079C27.1191 16.81 27.6314 17.0838 28.1891 17.1948C28.7468 17.3057 29.3249 17.2488 29.8502 17.0312C30.3756 16.8136 30.8246 16.4451 31.1405 15.9723C31.4564 15.4995 31.625 14.9436 31.625 14.375C31.6287 13.9964 31.5569 13.6209 31.4137 13.2704C31.2706 12.9199 31.059 12.6015 30.7912 12.3338C30.5235 12.0661 30.2051 11.8544 29.8546 11.7113C29.5041 11.5681 29.1286 11.4963 28.75 11.5Z" fill="black"/>
<path d="M17.25 11.5C16.6814 11.5 16.1255 11.6686 15.6527 11.9845C15.1799 12.3005 14.8114 12.7495 14.5938 13.2748C14.3762 13.8001 14.3193 14.3782 14.4302 14.9359C14.5412 15.4936 14.815 16.0059 15.2171 16.4079C15.6191 16.81 16.1314 17.0838 16.6891 17.1948C17.2468 17.3057 17.8249 17.2488 18.3502 17.0312C18.8756 16.8136 19.3246 16.4451 19.6405 15.9723C19.9564 15.4995 20.125 14.9436 20.125 14.375C20.1287 13.9964 20.0569 13.6209 19.9137 13.2704C19.7706 12.9199 19.559 12.6015 19.2912 12.3338C19.0235 12.0661 18.7051 11.8544 18.3546 11.7113C18.0041 11.5681 17.6286 11.4963 17.25 11.5Z" fill="black"/>
<path d="M25.4952 43.125L23 41.6875L28.75 31.625H37.375C37.7527 31.6256 38.1269 31.5517 38.476 31.4075C38.8251 31.2632 39.1423 31.0515 39.4094 30.7844C39.6765 30.5173 39.8882 30.2001 40.0325 29.851C40.1767 29.5019 40.2506 29.1277 40.25 28.75V8.625C40.2506 8.24727 40.1767 7.87313 40.0325 7.52402C39.8882 7.17492 39.6765 6.85773 39.4094 6.59063C39.1423 6.32354 38.8251 6.11179 38.476 5.96754C38.1269 5.82328 37.7527 5.74936 37.375 5.75H8.625C8.24727 5.74936 7.87313 5.82328 7.52402 5.96754C7.17492 6.11179 6.85773 6.32354 6.59063 6.59063C6.32354 6.85773 6.11179 7.17492 5.96754 7.52402C5.82328 7.87313 5.74936 8.24727 5.75 8.625V28.75C5.74936 29.1277 5.82328 29.5019 5.96754 29.851C6.11179 30.2001 6.32354 30.5173 6.59063 30.7844C6.85773 31.0515 7.17492 31.2632 7.52402 31.4075C7.87313 31.5517 8.24727 31.6256 8.625 31.625H21.5625V34.5H8.625C7.86986 34.5001 7.1221 34.3515 6.42441 34.0626C5.72673 33.7737 5.0928 33.3501 4.55884 32.8162C4.02488 32.2822 3.60134 31.6483 3.31242 30.9506C3.02351 30.2529 2.87487 29.5051 2.875 28.75V8.625C2.87477 7.86984 3.02335 7.12203 3.31223 6.4243C3.60112 5.72658 4.02465 5.09261 4.55863 4.55863C5.09261 4.02465 5.72658 3.60112 6.4243 3.31223C7.12203 3.02335 7.86984 2.87477 8.625 2.875H37.375C38.1302 2.87477 38.878 3.02335 39.5757 3.31223C40.2734 3.60112 40.9074 4.02465 41.4414 4.55863C41.9754 5.09261 42.3989 5.72658 42.6878 6.4243C42.9767 7.12203 43.1252 7.86984 43.125 8.625V28.75C43.1251 29.5051 42.9765 30.2529 42.6876 30.9506C42.3987 31.6483 41.9751 32.2822 41.4412 32.8162C40.9072 33.3501 40.2733 33.7737 39.5756 34.0626C38.8779 34.3515 38.1301 34.5001 37.375 34.5H30.4241L25.4952 43.125Z" fill="black"/>
</g>
<defs>
<clipPath id="clip0_116_246">
<rect width="46" height="46" fill="white"/>
</clipPath>
</defs>
</svg>
