<svg width="46" height="46" viewBox="0 0 46 46" fill="none" xmlns="http://www.w3.org/2000/svg">
<g clip-path="url(#clip0_116_260)">
<path d="M32.2719 8.625C33.3185 8.62412 34.3547 8.83219 35.3199 9.23701C36.285 9.64183 37.1597 10.2353 37.8925 10.9825C39.4025 12.5154 40.2488 14.5808 40.2488 16.7325C40.2488 18.8842 39.4025 20.9496 37.8925 22.4825L23 37.5619L8.10748 22.4825C6.59751 20.9496 5.75112 18.8842 5.75112 16.7325C5.75112 14.5808 6.59751 12.5154 8.10748 10.9825C8.84074 10.2358 9.71544 9.64268 10.6805 9.2378C11.6455 8.83292 12.6816 8.62439 13.7281 8.62439C14.7746 8.62439 15.8107 8.83292 16.7757 9.2378C17.7408 9.64268 18.6155 10.2358 19.3487 10.9825L23 14.72L26.6369 11.0113C27.3675 10.2551 28.243 9.65405 29.2113 9.24405C30.1795 8.83404 31.2204 8.62349 32.2719 8.625ZM32.2719 5.75C30.8424 5.74879 29.4272 6.03298 28.109 6.58591C26.7909 7.13884 25.5964 7.94938 24.5956 8.97L23 10.58L21.4044 8.97C20.4023 7.95122 19.2076 7.14209 17.8897 6.58978C16.5717 6.03746 15.1571 5.75302 13.7281 5.75302C12.2991 5.75302 10.8845 6.03746 9.56656 6.58978C8.24865 7.14209 7.05387 7.95122 6.05186 8.97C4.01331 11.0452 2.87109 13.8379 2.87109 16.7469C2.87109 19.6559 4.01331 22.4485 6.05186 24.5238L23 41.6875L39.9481 24.5238C41.9867 22.4485 43.1289 19.6559 43.1289 16.7469C43.1289 13.8379 41.9867 11.0452 39.9481 8.97C38.9464 7.95068 37.7517 7.14099 36.4338 6.58815C35.1158 6.03532 33.701 5.7504 32.2719 5.75Z" fill="black"/>
</g>
<defs>
<clipPath id="clip0_116_260">
<rect width="46" height="46" fill="white"/>
</clipPath>
</defs>
</svg>
