<svg width="56" height="56" viewBox="0 0 56 56" fill="none" xmlns="http://www.w3.org/2000/svg">
<g clip-path="url(#clip0_18_107)">
<path d="M28 31.5C26.2694 31.5 24.5777 30.9868 23.1388 30.0254C21.6998 29.0639 20.5783 27.6973 19.9161 26.0985C19.2538 24.4996 19.0805 22.7403 19.4181 21.043C19.7558 19.3456 20.5891 17.7865 21.8128 16.5628C23.0365 15.3391 24.5956 14.5058 26.293 14.1681C27.9903 13.8305 29.7496 14.0038 31.3485 14.6661C32.9473 15.3283 34.3139 16.4498 35.2754 17.8888C36.2368 19.3277 36.75 21.0194 36.75 22.75C36.7474 25.0698 35.8246 27.2939 34.1843 28.9343C32.5439 30.5746 30.3198 31.4974 28 31.5ZM28 17.5C26.9617 17.5 25.9466 17.8079 25.0833 18.3848C24.2199 18.9617 23.547 19.7816 23.1496 20.7409C22.7523 21.7002 22.6483 22.7558 22.8509 23.7742C23.0535 24.7926 23.5535 25.7281 24.2877 26.4623C25.0219 27.1965 25.9574 27.6966 26.9758 27.8991C27.9942 28.1017 29.0498 27.9977 30.0091 27.6004C30.9684 27.203 31.7883 26.5301 32.3652 25.6667C32.9421 24.8034 33.25 23.7884 33.25 22.75C33.2485 21.3581 32.6949 20.0236 31.7106 19.0394C30.7264 18.0551 29.3919 17.5015 28 17.5Z" fill="black"/>
<path d="M28 52.5L13.2379 35.0898C13.1541 34.9899 12.6285 34.2997 12.6285 34.2997C10.1066 30.9779 8.74411 26.9206 8.75002 22.75C8.75002 17.6446 10.7781 12.7483 14.3882 9.1382C17.9983 5.52812 22.8946 3.5 28 3.5C33.1054 3.5 38.0017 5.52812 41.6118 9.1382C45.2219 12.7483 47.25 17.6446 47.25 22.75C47.2563 26.9189 45.8947 30.9747 43.3741 34.2953L43.3715 34.2997C43.3715 34.2997 42.8465 34.9898 42.7683 35.0826L28 52.5ZM15.4219 32.1912C15.4236 32.1925 15.8303 32.7306 15.9234 32.8464L28 47.0888L40.0925 32.8263C40.1693 32.7297 40.5795 32.1878 40.5804 32.1864C42.6406 29.4722 43.754 26.1575 43.75 22.75C43.75 18.5728 42.0906 14.5668 39.1369 11.6131C36.1833 8.65937 32.1772 7 28 7C23.8229 7 19.8168 8.65937 16.8631 11.6131C13.9094 14.5668 12.25 18.5728 12.25 22.75C12.2461 26.1593 13.3604 29.4758 15.4219 32.1912Z" fill="black"/>
</g>
<defs>
<clipPath id="clip0_18_107">
<rect width="56" height="56" fill="white"/>
</clipPath>
</defs>
</svg>
