<svg width="26" height="26" viewBox="0 0 26 26" fill="none" xmlns="http://www.w3.org/2000/svg">
<g clip-path="url(#clip0_116_242)">
<path d="M23.5625 22.4135L17.4264 16.2774C18.9009 14.5073 19.6361 12.2368 19.4792 9.93838C19.3223 7.63994 18.2853 5.49048 16.584 3.93714C14.8827 2.38379 12.648 1.54617 10.3448 1.5985C8.04157 1.65084 5.84722 2.58912 4.2182 4.21814C2.58918 5.84716 1.6509 8.04151 1.59857 10.3447C1.54623 12.6479 2.38385 14.8826 3.9372 16.5839C5.49054 18.2853 7.64001 19.3223 9.93844 19.4792C12.2369 19.6361 14.5073 18.9008 16.2775 17.4264L22.4136 23.5624L23.5625 22.4135ZM3.25001 10.5624C3.25001 9.11617 3.67888 7.70237 4.48239 6.49984C5.2859 5.29731 6.42795 4.36004 7.76414 3.80658C9.10032 3.25311 10.5706 3.1083 11.9891 3.39046C13.4076 3.67261 14.7106 4.36906 15.7332 5.39173C16.7559 6.4144 17.4523 7.71736 17.7345 9.13585C18.0167 10.5543 17.8718 12.0246 17.3184 13.3608C16.7649 14.697 15.8277 15.8391 14.6251 16.6426C13.4226 17.4461 12.0088 17.8749 10.5625 17.8749C8.62377 17.8728 6.76506 17.1017 5.39417 15.7308C4.02327 14.3599 3.25216 12.5012 3.25001 10.5624Z" fill="black"/>
</g>
<defs>
<clipPath id="clip0_116_242">
<rect width="26" height="26" fill="white"/>
</clipPath>
</defs>
</svg>
