<svg width="46" height="46" viewBox="0 0 46 46" fill="none" xmlns="http://www.w3.org/2000/svg">
<g clip-path="url(#clip0_116_266)">
<path d="M23 5.75C24.4216 5.75 25.8112 6.17154 26.9932 6.96131C28.1751 7.75108 29.0964 8.87362 29.6404 10.187C30.1844 11.5003 30.3267 12.9455 30.0494 14.3397C29.7721 15.7339 29.0875 17.0146 28.0823 18.0198C27.0771 19.025 25.7965 19.7096 24.4022 19.9869C23.008 20.2642 21.5628 20.1219 20.2495 19.5779C18.9361 19.0339 17.8136 18.1126 17.0238 16.9307C16.234 15.7487 15.8125 14.3591 15.8125 12.9375C15.8125 11.0313 16.5698 9.20309 17.9177 7.85517C19.2656 6.50725 21.0938 5.75 23 5.75ZM23 2.875C21.0098 2.875 19.0643 3.46516 17.4096 4.57084C15.7548 5.67652 14.4651 7.24807 13.7035 9.08675C12.9419 10.9254 12.7426 12.9487 13.1309 14.9006C13.5191 16.8525 14.4775 18.6455 15.8847 20.0528C17.292 21.46 19.085 22.4184 21.0369 22.8067C22.9888 23.1949 25.0121 22.9956 26.8508 22.234C28.6894 21.4724 30.261 20.1827 31.3667 18.5279C32.4723 16.8732 33.0625 14.9277 33.0625 12.9375C33.0625 10.2688 32.0023 7.70932 30.1153 5.82224C28.2282 3.93515 25.6687 2.875 23 2.875Z" fill="black"/>
<path d="M37.375 43.125H34.5V35.9375C34.5 34.9936 34.3141 34.059 33.9529 33.187C33.5917 32.3149 33.0623 31.5226 32.3948 30.8552C31.7274 30.1877 30.9351 29.6583 30.063 29.2971C29.191 28.9359 28.2564 28.75 27.3125 28.75H18.6875C16.7813 28.75 14.9531 29.5073 13.6052 30.8552C12.2573 32.2031 11.5 34.0313 11.5 35.9375V43.125H8.625V35.9375C8.625 33.2688 9.68515 30.7093 11.5722 28.8222C13.4593 26.9352 16.0188 25.875 18.6875 25.875H27.3125C29.9812 25.875 32.5407 26.9352 34.4278 28.8222C36.3148 30.7093 37.375 33.2688 37.375 35.9375V43.125Z" fill="black"/>
</g>
<defs>
<clipPath id="clip0_116_266">
<rect width="46" height="46" fill="white"/>
</clipPath>
</defs>
</svg>
